<?xml version="1.0" standalone="no"?>
<!DOCTYPE svg PUBLIC "-//W3C//DTD SVG 20010904//EN"
 "http://www.w3.org/TR/2001/REC-SVG-20010904/DTD/svg10.dtd">
<svg version="1.0" xmlns="http://www.w3.org/2000/svg"
 width="800.000000pt" height="800.000000pt" viewBox="0 0 800.000000 800.000000"
 preserveAspectRatio="xMidYMid meet">
<metadata>
Created by potrace 1.14, written by Peter Selinger 2001-2017
</metadata>
<g transform="translate(0.000000,800.000000) scale(0.100000,-0.100000)"
fill="#000000" stroke="none">
<path d="M4110 7988 c14 -6 27 -12 30 -13 24 -9 77 -35 83 -42 5 -4 12 -8 15
-8 37 -2 272 -209 272 -240 0 -6 9 -16 20 -23 12 -7 18 -16 15 -21 -2 -5 2
-14 10 -21 8 -7 13 -16 10 -20 -3 -4 2 -11 11 -14 9 -4 14 -9 10 -13 -3 -3 0
-16 7 -27 44 -70 72 -218 63 -330 -12 -140 -22 -188 -47 -215 -23 -25 -22 -25
-85 -7 -52 15 -73 19 -224 38 -104 14 -470 17 -565 5 -33 -4 -87 -10 -120 -13
-33 -3 -63 -8 -67 -10 -4 -2 -26 -7 -50 -10 -126 -16 -447 -106 -563 -158 -16
-8 -59 -26 -95 -42 -36 -15 -68 -32 -71 -37 -3 -4 -12 -9 -20 -10 -8 -2 -32
-13 -52 -25 -21 -12 -42 -22 -48 -22 -5 0 -9 -4 -9 -9 0 -5 -11 -12 -24 -15
-14 -3 -31 -12 -38 -19 -7 -7 -40 -30 -73 -52 -33 -21 -63 -43 -67 -49 -5 -7
-8 -7 -8 -1 0 7 -3 7 -8 0 -4 -6 -25 -23 -47 -40 -22 -16 -42 -32 -45 -35 -3
-3 -18 -16 -35 -29 -53 -40 -155 -141 -155 -153 0 -6 -3 -9 -6 -5 -7 6 -99
-85 -178 -178 -28 -32 -59 -68 -68 -79 -10 -11 -20 -28 -24 -38 -3 -10 -10
-16 -15 -13 -5 4 -9 0 -9 -7 0 -13 -10 -28 -57 -88 -13 -15 -23 -31 -23 -35 0
-5 -15 -31 -34 -59 -18 -28 -46 -76 -61 -106 -15 -30 -32 -58 -37 -61 -5 -3
-9 -8 -8 -10 2 -6 -19 -63 -30 -79 -6 -8 -13 -22 -16 -30 -19 -51 -39 -96 -44
-100 -3 -3 -7 -16 -9 -30 -1 -14 -7 -28 -13 -31 -5 -3 -8 -8 -7 -10 2 -2 -9
-42 -24 -89 -15 -47 -31 -98 -37 -115 -14 -47 -38 -146 -44 -185 -3 -19 -8
-46 -11 -60 -10 -42 -13 -63 -20 -125 -4 -33 -11 -89 -16 -125 -5 -36 -10 -71
-11 -77 -1 -7 -6 -13 -12 -14 -6 0 -29 -22 -51 -49 -22 -27 -46 -49 -52 -49
-7 -1 -13 -5 -13 -11 0 -5 -21 -33 -47 -61 -27 -28 -47 -55 -46 -59 2 -5 -6
-12 -17 -15 -11 -4 -20 -10 -20 -15 0 -5 -20 -30 -45 -57 -24 -26 -45 -58 -45
-70 0 -12 -4 -23 -8 -25 -5 -1 -23 -25 -42 -53 -18 -27 -36 -52 -39 -55 -4 -3
-15 -22 -26 -42 -11 -21 -23 -38 -27 -38 -5 0 -8 -9 -8 -19 0 -10 -7 -22 -16
-25 -9 -4 -14 -9 -10 -13 3 -3 -1 -15 -11 -25 -9 -10 -13 -18 -9 -18 3 0 0
-13 -9 -30 -8 -16 -15 -32 -15 -36 0 -14 55 8 72 29 10 12 28 35 40 50 75 93
264 287 280 287 5 0 6 4 3 10 -3 6 -2 10 4 10 6 0 27 18 47 40 21 22 44 40 51
40 8 0 11 5 8 10 -6 9 8 14 28 11 4 0 7 4 7 11 0 8 3 9 10 2 5 -5 12 -59 15
-119 4 -61 11 -141 16 -180 5 -38 14 -106 20 -149 5 -43 11 -82 11 -85 2 -9
-35 -84 -49 -99 -7 -7 -13 -18 -13 -23 0 -8 -57 -135 -94 -209 -10 -21 -10
-28 1 -38 15 -14 33 -8 33 12 0 6 13 30 30 53 16 22 26 44 22 48 -4 5 -2 6 3
3 9 -6 32 11 31 22 -1 3 9 18 22 34 12 16 22 25 22 20 0 -5 4 -3 9 5 8 12 41
5 39 -9 -1 -5 19 -73 29 -100 4 -8 5 -18 5 -22 -1 -5 3 -8 8 -8 6 0 10 -7 10
-15 0 -8 14 -45 31 -82 35 -76 34 -86 -18 -199 -15 -33 -27 -61 -28 -64 0 -3
-16 -34 -35 -70 -19 -36 -38 -72 -42 -80 -5 -8 -17 -28 -28 -45 -43 -65 -61
-105 -48 -105 20 1 101 20 123 29 11 5 54 21 95 37 71 26 129 54 176 84 12 7
32 10 46 7 20 -5 24 -12 23 -44 -1 -21 -9 -55 -18 -77 -9 -21 -17 -42 -17 -47
0 -5 -3 -9 -7 -9 -5 0 -17 -19 -28 -43 -11 -23 -26 -48 -32 -55 -7 -7 -13 -17
-13 -22 0 -5 -13 -28 -28 -52 -27 -41 -45 -78 -38 -78 8 0 125 40 158 54 21 9
39 16 40 15 2 -1 33 16 69 38 36 22 75 44 87 47 12 4 20 12 17 17 -4 5 -1 9 5
9 6 0 8 5 4 11 -4 7 2 7 17 -1 13 -7 21 -9 17 -5 -4 5 -2 15 5 24 11 14 10 15
-8 1 -19 -14 -19 -14 -6 3 11 13 17 15 28 6 11 -10 12 -8 6 7 -6 16 -4 17 9 7
8 -7 17 -11 20 -8 2 3 15 -7 29 -22 13 -14 18 -23 10 -18 -11 6 -13 4 -8 -9 4
-10 7 -22 7 -27 0 -6 6 -7 13 -3 8 5 7 2 -2 -9 -11 -14 -17 -15 -28 -5 -11 9
-13 8 -11 -3 2 -8 -3 -13 -9 -12 -7 2 -12 0 -11 -5 2 -9 -20 -62 -26 -62 -3 0
-3 8 1 18 5 14 3 13 -10 -3 -8 -11 -13 -23 -11 -27 3 -5 0 -8 -7 -8 -6 0 -20
-10 -30 -22 -11 -11 -19 -18 -19 -15 0 4 -11 -3 -25 -15 -14 -12 -25 -26 -25
-31 0 -13 141 -2 169 12 16 9 22 8 30 -8 6 -10 8 -21 5 -24 -11 -11 -10 -205
1 -254 7 -29 11 -54 8 -56 -2 -2 3 -9 10 -15 10 -9 14 -9 14 1 1 6 11 44 23
82 12 39 22 75 24 80 1 6 17 41 35 79 24 49 36 65 42 55 7 -12 9 -11 9 1 0 9
3 11 8 5 4 -5 14 -11 22 -13 8 -2 17 -8 18 -13 2 -5 10 -16 18 -23 8 -8 14
-18 14 -21 0 -4 9 -20 21 -36 11 -16 17 -29 13 -29 -4 0 3 -8 14 -19 12 -10
22 -23 22 -28 0 -6 9 -20 20 -33 11 -13 20 -29 20 -37 0 -7 4 -13 9 -13 5 0
14 -13 21 -30 7 -16 15 -30 19 -30 3 0 22 -27 40 -60 19 -33 39 -60 43 -60 4
0 8 -7 8 -15 0 -8 3 -15 8 -15 4 0 18 -18 32 -40 14 -22 28 -40 32 -40 5 0 8
-6 8 -13 0 -7 9 -19 19 -27 11 -7 18 -17 16 -21 -3 -4 2 -9 10 -13 8 -3 15
-12 15 -21 0 -8 4 -15 9 -15 5 0 19 -15 32 -34 13 -19 27 -32 31 -30 4 3 8 1
8 -5 0 -6 27 -38 60 -73 33 -34 60 -66 60 -71 0 -4 4 -6 8 -3 4 2 13 -4 20
-14 8 -14 8 -21 1 -26 -8 -4 -7 -9 2 -15 11 -7 11 -9 -1 -9 -13 0 -13 -2 -1
-9 12 -8 12 -12 2 -24 -8 -11 -9 -16 -1 -19 8 -2 8 -11 1 -31 -8 -20 -7 -27 2
-27 8 0 9 -2 1 -8 -6 -4 -10 -15 -8 -24 1 -10 -2 -18 -7 -18 -6 0 -8 -4 -5 -9
4 -5 3 -11 -1 -13 -5 -1 -19 -25 -33 -53 -14 -27 -27 -52 -31 -55 -3 -3 -25
-41 -49 -85 -24 -44 -46 -82 -50 -85 -3 -3 -14 -18 -24 -34 -16 -25 -16 -58
-1 -106 9 -29 26 -58 39 -69 9 -7 16 -20 16 -27 0 -8 7 -14 17 -14 9 0 14 -3
11 -6 -4 -3 12 -22 35 -42 23 -20 48 -43 55 -50 8 -7 18 -10 23 -7 5 4 9 2 9
-2 0 -5 16 -17 36 -28 37 -20 58 -53 44 -70 -5 -5 -9 -14 -11 -20 -4 -20 -23
-60 -41 -86 -9 -14 -15 -28 -12 -31 2 -3 -2 -11 -11 -18 -8 -7 -15 -16 -15
-20 0 -5 -16 -36 -35 -69 -19 -34 -34 -64 -35 -66 -3 -32 -68 -133 -118 -185
l-64 -65 1148 -3 c631 -1 1149 0 1151 2 7 6 -9 36 -20 36 -5 0 -25 11 -43 25
-19 14 -75 45 -126 69 -80 37 -96 49 -116 85 -13 22 -27 41 -33 41 -5 0 -9 6
-9 13 0 6 -13 26 -28 42 -27 28 -50 81 -31 69 10 -6 12 15 9 85 -1 27 3 47 12
52 10 7 9 9 -5 9 -17 0 -18 8 -15 80 2 66 0 80 -12 80 -13 0 -13 1 0 10 12 8
12 10 1 10 -8 0 -11 7 -8 20 3 11 2 20 -2 20 -4 0 -6 13 -3 30 2 16 10 30 17
30 7 0 15 3 18 8 2 4 3 2 1 -5 -1 -6 7 -13 18 -16 13 -4 17 -10 12 -19 -4 -7
3 -4 16 7 13 11 21 15 17 9 -4 -6 2 -19 13 -29 11 -10 20 -14 20 -9 0 5 5 2
11 -6 8 -11 12 -12 16 -2 2 6 9 10 13 7 5 -3 11 -1 15 5 3 5 -2 10 -12 10 -15
0 -16 2 -3 10 13 9 13 10 0 10 -13 0 -13 1 0 10 13 9 13 10 0 10 -13 0 -13 2
-1 9 11 7 10 10 -4 12 -18 4 -18 5 -1 22 17 16 16 17 -5 17 -18 0 -20 3 -11
12 7 7 12 16 12 22 0 5 -3 6 -7 3 -3 -4 -12 -2 -18 3 -10 8 -10 16 -1 35 13
29 26 33 26 8 0 -15 2 -16 10 -3 8 13 10 12 10 -3 0 -10 5 -15 10 -12 6 3 10
1 10 -6 0 -7 3 -9 7 -6 3 4 13 1 21 -6 13 -9 14 -9 8 1 -4 6 -3 12 3 12 5 0
11 -5 13 -10 2 -6 16 -12 32 -14 16 -2 33 -11 38 -20 8 -14 12 -15 26 -4 12
10 14 10 8 0 -4 -7 -2 -12 4 -12 6 0 8 -5 4 -11 -4 -7 0 -9 14 -5 15 5 20 2
18 -10 -2 -25 50 -32 136 -18 35 5 98 55 98 76 0 5 4 7 9 4 5 -4 15 7 23 24 7
16 16 30 20 30 5 0 8 6 8 13 0 12 9 26 50 74 5 7 10 19 10 28 0 8 5 15 12 15
6 0 9 3 5 6 -3 3 7 33 23 66 23 48 28 70 24 111 -2 28 -11 58 -19 67 -10 11
-15 37 -15 73 0 59 -30 154 -59 189 -9 11 -24 29 -33 40 -9 11 -22 17 -28 13
-5 -3 -14 4 -19 17 -6 13 -10 16 -11 8 0 -13 -2 -13 -9 -1 -5 8 -16 11 -24 8
-9 -3 -18 -1 -21 6 -3 9 -5 9 -5 0 -1 -7 -7 -10 -15 -7 -8 3 -21 -4 -29 -16
-8 -12 -20 -18 -29 -15 -8 3 -21 -1 -28 -10 -9 -11 -9 -15 -1 -15 7 0 10 -4 6
-10 -3 -5 -12 -7 -19 -4 -17 7 -30 -12 -32 -50 -4 -42 -17 -50 -44 -26 -15 13
-18 20 -9 20 11 0 11 2 -1 10 -13 9 -13 10 0 10 13 0 13 2 0 9 -8 6 -18 7 -22
5 -13 -8 -9 11 5 25 10 11 8 12 -10 6 -17 -5 -23 -2 -23 9 0 9 -3 15 -7 15
-27 -4 -63 3 -58 11 9 14 -9 12 -24 -2 -10 -11 -12 -10 -11 2 1 8 2 22 1 30
-1 13 -2 13 -12 0 -8 -12 -9 -10 -7 10 2 20 -1 24 -18 22 -12 -1 -27 4 -34 13
-7 8 -19 15 -26 15 -8 0 -14 6 -14 13 0 8 -4 7 -10 -3 -6 -10 -10 -11 -10 -2
0 6 -11 12 -25 12 -14 0 -25 6 -25 13 0 8 -4 7 -10 -3 -5 -8 -10 -10 -10 -5 0
6 -11 15 -25 22 -14 6 -22 7 -19 1 3 -5 -3 -4 -15 4 -12 7 -21 16 -21 21 0 4
-4 5 -10 2 -5 -3 -10 2 -10 12 0 15 -2 16 -10 3 -5 -8 -10 -10 -10 -4 0 7 -10
14 -21 17 -19 5 -20 8 -8 21 32 35 37 44 31 52 -4 5 0 3 8 -3 11 -8 18 -8 27
2 6 7 9 15 7 18 -3 3 5 4 19 3 18 -2 24 1 20 11 -4 9 0 11 13 6 12 -4 15 -3
10 5 -4 7 -2 12 4 12 6 0 8 5 4 12 -5 7 -3 8 6 3 8 -5 20 1 32 16 11 13 17 17
13 9 -4 -8 3 -4 15 10 12 14 18 18 14 10 -6 -12 -5 -13 8 -3 8 7 18 9 23 5 4
-4 2 3 -4 16 -9 18 -9 22 1 20 7 -2 12 2 11 9 -2 7 4 10 13 6 13 -5 13 -8 2
-15 -10 -8 -10 -9 2 -5 8 2 14 13 14 25 -1 11 5 23 13 26 9 4 11 2 7 -6 -5 -7
-3 -8 5 -4 7 5 10 15 6 23 -4 13 -3 14 10 3 17 -14 19 -93 1 -83 -6 4 -4 -2 4
-12 9 -11 10 -16 3 -11 -12 7 -18 -25 -16 -81 1 -7 -3 -10 -8 -7 -6 3 -8 -6
-5 -20 3 -15 1 -24 -4 -21 -15 9 -19 -9 -7 -32 11 -19 14 -20 31 -7 11 8 15
14 8 14 -6 0 -9 7 -6 15 4 8 10 15 16 15 5 0 6 -5 2 -12 -4 -7 -3 -8 4 -4 6 4
9 13 6 20 -3 7 2 16 10 19 9 4 13 13 10 22 -4 8 -1 15 6 15 7 0 10 7 6 16 -3
8 -2 12 4 9 6 -3 10 1 10 10 0 10 5 14 13 9 9 -6 9 -4 0 7 -16 16 -17 29 -2
29 5 0 7 -5 3 -12 -4 -7 -3 -8 5 -4 6 4 9 12 6 17 -4 5 0 9 7 9 10 0 10 2 1 8
-12 7 -3 35 11 33 18 -3 20 0 6 9 -11 7 -11 10 -2 10 7 0 11 4 7 9 -3 5 -1 12
5 16 6 4 7 13 1 23 -12 23 3 58 26 64 22 6 53 -13 53 -32 0 -10 3 -10 15 0 13
11 14 10 9 -4 -3 -9 -11 -16 -17 -16 -6 0 -7 -3 -4 -6 4 -4 13 -1 21 5 12 10
13 9 9 -9 -5 -18 -2 -21 18 -18 21 3 24 -1 22 -27 0 -16 1 -24 4 -16 4 10 9 8
20 -10 8 -13 12 -16 9 -6 -3 11 -2 15 4 12 6 -3 10 -13 10 -21 0 -8 5 -14 11
-14 5 0 7 -4 4 -10 -3 -6 1 -7 9 -4 9 3 16 1 16 -5 0 -6 -5 -11 -12 -11 -6 0
-8 -3 -5 -6 4 -4 14 -1 24 7 9 8 14 9 10 2 -4 -6 -2 -15 5 -19 19 -12 58 -14
58 -3 0 5 -6 9 -12 9 -9 0 -8 4 2 10 10 6 11 10 3 10 -7 0 -13 5 -13 11 0 5 6
7 13 4 6 -4 1 3 -13 15 -14 12 -19 19 -12 15 6 -3 12 -1 12 4 0 6 -5 11 -12
11 -6 0 -8 3 -5 7 4 3 -1 15 -10 26 -10 11 -12 17 -5 13 6 -4 12 -2 12 3 0 6
-6 11 -12 11 -9 0 -8 4 2 10 10 6 11 10 3 10 -9 0 -13 17 -13 50 0 32 -4 50
-12 50 -9 0 -9 3 0 12 16 16 15 31 0 22 -7 -4 -4 3 7 16 l20 23 -22 -12 c-28
-15 -33 -14 -33 4 0 16 41 17 56 2 4 -4 12 -7 18 -7 6 0 4 5 -4 10 -13 8 -12
10 3 10 9 0 17 5 17 10 0 6 7 10 16 10 9 0 12 5 8 13 -5 8 -2 8 9 -2 11 -9 17
-10 17 -2 0 6 5 11 11 11 5 0 8 -4 5 -9 -3 -4 10 -17 30 -27 24 -13 34 -24 31
-36 -3 -10 -2 -17 2 -16 3 0 15 0 26 -2 20 -1 20 -2 0 -9 -17 -7 -17 -8 8 -15
15 -3 25 -11 22 -16 -3 -6 3 -10 13 -10 23 0 46 -25 37 -40 -4 -6 -3 -9 2 -8
16 5 64 -35 59 -49 -3 -8 -1 -11 4 -8 6 3 10 1 10 -4 0 -6 6 -11 14 -11 8 0
18 -5 22 -12 5 -7 3 -8 -6 -3 -9 6 -11 4 -6 -4 5 -7 15 -10 23 -6 13 4 14 3 4
-9 -10 -12 -8 -16 8 -21 12 -3 21 -11 21 -17 0 -6 3 -9 6 -5 3 3 19 -8 36 -23
17 -16 39 -32 49 -35 11 -4 19 -11 19 -16 0 -5 6 -9 14 -9 8 0 16 -4 18 -9 2
-5 10 -11 18 -13 8 -2 23 -11 34 -21 38 -33 41 -1 6 70 -19 37 -34 72 -34 76
-1 4 -12 19 -25 33 -20 21 -25 35 -24 75 1 28 -3 49 -9 49 -6 0 -8 11 -6 25 3
14 1 23 -6 22 -7 -1 -11 21 -12 58 -1 47 3 64 18 79 11 10 17 24 14 32 -4 11
-1 12 13 4 16 -8 18 -7 14 11 -4 15 0 22 16 26 17 4 19 8 10 19 -10 12 -9 13
5 8 12 -4 15 -2 10 9 -3 8 0 18 7 23 8 5 10 3 4 -6 -6 -9 -4 -11 4 -6 7 5 10
14 7 22 -3 8 1 14 9 14 7 0 17 5 21 12 5 8 1 9 -12 5 -12 -5 -8 2 11 18 17 14
24 25 17 25 -10 0 -10 3 0 14 9 10 17 10 30 3 17 -11 31 -57 17 -57 -5 0 -6
-6 -3 -14 3 -8 1 -24 -6 -35 -8 -16 -8 -21 2 -21 10 0 10 -2 -1 -9 -7 -5 -13
-21 -13 -35 0 -15 -4 -29 -9 -32 -5 -3 -9 -18 -9 -35 0 -16 -5 -29 -12 -29
-10 0 -9 -3 1 -9 9 -6 9 -10 2 -12 -6 -2 -12 -16 -13 -31 -1 -16 -7 -28 -13
-28 -5 0 -3 -5 5 -10 13 -9 13 -12 -2 -24 -13 -10 -15 -15 -6 -24 9 -9 9 -12
-1 -12 -7 0 -9 -4 -6 -10 3 -5 1 -10 -4 -10 -6 0 -11 -5 -11 -11 0 -5 6 -7 13
-3 10 6 10 4 0 -7 -16 -17 -16 -29 0 -29 6 0 30 28 52 63 22 34 42 64 46 67 4
3 9 25 12 50 3 25 6 46 6 48 2 7 71 0 72 -8 1 -5 2 -18 3 -27 1 -10 5 -24 9
-30 5 -8 3 -13 -4 -13 -9 0 -9 -3 0 -14 7 -8 13 -33 15 -56 2 -23 9 -46 17
-51 8 -5 9 -9 2 -9 -6 0 -9 -9 -6 -20 6 -21 22 -28 24 -10 2 13 6 29 8 33 3 3
13 68 14 89 1 9 5 14 10 11 9 -5 12 365 3 375 -2 2 9 17 25 34 15 17 26 35 23
39 -3 5 2 19 11 32 8 13 12 27 8 30 -3 4 0 7 8 7 12 0 12 2 -1 10 -12 7 -10
11 10 19 14 5 19 10 12 10 -10 1 -10 6 -1 24 7 12 17 25 23 29 8 6 8 8 0 8 -6
0 -11 6 -11 14 0 12 10 13 52 7 6 -1 3 -6 -5 -11 -11 -7 -11 -10 -2 -10 10 0
13 -25 11 -109 -1 -60 1 -114 5 -119 3 -6 2 -13 -4 -17 -6 -4 -7 -11 -4 -17
10 -16 10 -88 1 -88 -5 0 -5 -5 -1 -12 9 -14 11 -188 3 -188 -4 0 -3 -18 1
-40 5 -26 4 -40 -3 -40 -8 0 -8 -3 0 -11 6 -6 7 -26 3 -52 l-8 -41 19 25 c10
13 35 59 56 102 20 42 40 77 44 77 4 0 5 14 3 30 -4 25 -1 32 18 39 17 7 19
10 6 10 -25 1 -22 18 5 25 17 5 19 8 8 15 -9 6 -10 10 -2 12 7 3 13 19 13 36
1 18 4 30 8 28 4 -3 8 1 7 8 -1 35 4 57 13 57 7 0 10 -36 9 -100 -1 -55 -4
-100 -8 -100 -3 0 -6 -12 -6 -27 -1 -16 -4 -53 -8 -83 -7 -49 -6 -53 6 -35 11
16 37 80 42 105 1 3 12 39 25 80 13 41 25 82 26 90 3 17 19 79 41 156 9 34 20
54 32 57 25 6 51 -10 51 -33 0 -11 5 -20 10 -20 6 0 10 -5 10 -11 0 -26 124
-188 135 -177 3 3 -8 35 -25 72 -16 38 -30 72 -30 76 0 5 -5 21 -12 37 -6 15
-12 31 -13 36 -2 4 -3 8 -5 10 -1 1 -3 9 -5 17 -2 8 -10 38 -18 67 -8 28 -12
54 -9 57 3 3 1 6 -5 6 -5 0 -10 14 -9 32 1 25 5 32 23 33 13 1 31 -6 40 -15
24 -23 53 -59 53 -65 0 -3 8 -13 18 -23 9 -10 39 -42 65 -70 49 -53 172 -152
189 -152 6 0 22 -8 36 -19 15 -10 41 -22 59 -25 l32 -7 -12 30 c-6 17 -15 31
-19 31 -4 0 -8 6 -8 13 0 7 -11 28 -25 47 -13 18 -22 37 -19 41 3 5 1 9 -4 9
-5 0 -21 27 -36 60 -15 33 -32 60 -37 60 -6 0 -7 5 -4 10 4 6 1 17 -5 25 -7 8
-9 15 -4 15 4 0 -1 7 -12 16 -10 8 -14 13 -7 9 9 -4 8 3 -2 21 -8 15 -12 31
-9 36 3 4 2 8 -3 8 -4 0 -13 11 -20 25 -8 19 -8 23 0 18 9 -5 9 -3 1 8 -6 8
-17 34 -24 59 -7 25 -18 51 -23 58 -5 6 -7 12 -4 12 3 0 0 21 -8 48 -8 26 -15
57 -15 70 0 12 -4 22 -9 22 -4 0 -8 15 -8 34 1 19 -5 41 -12 50 -11 13 -11 16
0 16 10 0 10 3 1 12 -7 7 -12 27 -12 45 0 18 -4 33 -10 33 -5 0 -10 5 -10 11
0 5 6 7 13 3 10 -6 10 -4 0 7 -7 7 -13 30 -13 51 0 21 -4 38 -9 38 -5 0 -8 14
-7 30 1 17 -1 30 -5 30 -4 0 -5 9 -2 20 3 13 0 20 -8 20 -11 0 -11 2 1 10 13
9 13 10 0 10 -12 0 -14 10 -11 46 2 32 0 44 -8 40 -15 -9 -14 7 1 22 9 9 9 12
0 12 -7 0 -12 14 -12 35 0 19 -4 35 -8 35 -5 0 -10 26 -11 57 -1 32 -7 60 -13
64 -7 4 -6 9 2 14 9 6 9 9 0 15 -7 4 -12 19 -11 34 2 42 2 50 -1 71 -2 11 -6
22 -10 26 -4 3 -8 33 -9 67 -1 34 -6 62 -10 62 -5 0 -9 23 -9 50 0 33 -4 50
-12 50 -9 0 -8 4 2 10 8 5 10 10 4 10 -6 0 -11 22 -13 50 -2 41 1 50 15 50 10
0 15 -3 11 -6 -3 -4 1 -13 9 -21 9 -9 12 -23 8 -35 -4 -14 -2 -18 5 -14 6 4
11 2 11 -4 0 -6 5 -8 10 -5 14 9 13 -8 -2 -23 -9 -9 -8 -12 6 -12 10 0 16 -5
13 -13 -5 -14 17 -39 27 -30 3 4 6 2 6 -3 0 -6 -5 -15 -12 -22 -9 -9 -8 -12 6
-12 12 0 16 -5 13 -14 -3 -8 2 -20 11 -28 13 -11 14 -11 7 1 -5 10 -4 12 4 7
9 -6 9 -11 -1 -24 -10 -12 -10 -14 0 -8 7 4 12 1 12 -8 0 -9 -1 -17 -2 -19 -6
-6 27 -35 35 -30 4 2 7 0 7 -6 0 -5 -5 -13 -12 -17 -7 -5 -3 -10 13 -16 19 -7
21 -11 9 -18 -12 -8 -12 -10 2 -15 10 -4 14 -14 11 -26 -3 -10 0 -19 6 -19 6
0 11 -9 11 -20 0 -11 5 -20 11 -20 8 0 7 -6 -2 -17 -8 -9 -9 -14 -3 -10 7 4
18 -1 25 -10 10 -12 10 -14 2 -9 -7 4 -13 2 -13 -3 0 -6 5 -11 10 -11 6 0 10
-7 10 -15 0 -8 6 -15 13 -15 8 0 7 -4 -3 -10 -10 -6 -11 -10 -2 -10 6 0 12 -9
12 -20 0 -11 4 -20 8 -20 5 0 8 -13 7 -30 -1 -16 2 -27 6 -25 4 3 10 -2 13
-11 4 -10 2 -13 -7 -9 -6 4 -4 0 5 -8 14 -11 15 -16 5 -26 -7 -7 -7 -12 -2
-11 22 5 27 -1 15 -15 -9 -10 -9 -15 -1 -15 6 0 11 -9 11 -20 0 -11 6 -20 13
-20 8 0 7 -4 -3 -10 -13 -9 -13 -10 0 -10 13 0 13 -1 0 -10 -10 -6 -11 -10 -2
-10 6 0 12 -9 12 -20 0 -11 5 -20 11 -20 8 0 8 -5 -1 -15 -8 -9 -8 -15 -2 -15
6 0 12 -15 14 -32 2 -21 8 -32 16 -30 8 1 11 -2 7 -8 -3 -6 -11 -8 -16 -5 -5
4 -9 2 -9 -4 0 -5 4 -11 9 -13 5 -1 11 -21 13 -43 3 -22 10 -50 16 -62 8 -15
9 -24 2 -28 -8 -5 -8 -11 -1 -19 6 -7 8 -16 4 -19 -3 -4 -2 -7 3 -7 12 0 18
-89 18 -317 1 -183 7 -225 20 -139 4 21 8 41 10 45 2 3 7 35 11 71 3 36 8 73
11 82 10 35 6 406 -5 498 -17 136 -18 147 -36 230 -9 41 -18 86 -21 100 -3 14
-8 34 -11 45 -4 11 -7 22 -8 25 -16 76 -52 197 -66 222 -5 10 -9 24 -9 32 0
12 -26 83 -53 146 -6 14 -11 27 -12 30 -1 3 -5 14 -9 25 -5 11 -10 27 -14 35
-3 8 -6 17 -6 20 -1 3 -6 12 -11 20 -5 8 -10 20 -11 25 -1 6 -13 34 -27 63
-14 29 -29 66 -32 82 -4 17 -11 30 -16 30 -5 0 -9 4 -9 10 0 5 -13 39 -30 75
-16 36 -30 69 -30 74 0 5 -7 14 -15 21 -9 7 -13 15 -11 17 2 3 -15 46 -38 96
-69 148 -79 173 -85 199 -5 24 -76 220 -92 255 -10 24 -19 45 -19 48 0 15
-130 262 -161 307 -11 14 -19 31 -19 36 0 6 -3 12 -7 14 -5 2 -28 32 -52 68
-25 36 -48 67 -51 70 -3 3 -21 25 -40 50 -19 25 -40 49 -47 53 -7 4 -13 15
-13 22 0 8 -7 15 -15 15 -8 0 -15 4 -15 8 0 14 -150 162 -246 242 -58 49 -154
120 -154 115 0 -3 -10 3 -22 15 -12 11 -26 20 -30 20 -5 0 -18 8 -28 18 -20
18 -191 107 -265 137 -47 19 -183 66 -199 69 -6 1 -33 9 -61 18 -160 51 -192
60 -215 64 -42 8 -94 24 -108 32 -13 9 -6 42 9 42 5 0 9 4 9 10 0 5 9 21 21
34 12 13 20 27 19 31 -1 4 9 15 21 26 12 10 19 19 15 19 -3 0 4 17 17 38 13
20 25 42 27 47 1 6 6 20 11 32 62 165 47 322 -46 477 -42 69 -114 165 -126
166 -4 0 -26 18 -50 40 -24 22 -50 40 -56 40 -7 0 -13 5 -13 10 0 6 -7 10 -16
10 -8 0 -13 4 -10 9 11 17 -42 21 -294 20 -194 0 -249 -3 -230 -11z m1593
-5112 c7 -19 -3 -57 -13 -51 -5 3 -11 1 -15 -5 -17 -27 -39 6 -29 44 6 25 49
34 57 12z m107 -77 c0 -11 -4 -17 -10 -14 -14 9 -13 -8 2 -23 9 -9 8 -12 -7
-12 -10 0 -15 -3 -12 -7 4 -3 2 -12 -4 -20 -9 -10 -8 -13 2 -13 9 0 10 -3 4
-8 -11 -8 -14 -17 -17 -61 -1 -16 -6 -27 -10 -25 -4 3 -9 -2 -9 -10 -1 -9 -3
-20 -4 -26 -1 -5 -3 -14 -4 -20 0 -5 -9 -10 -18 -10 -15 0 -16 -2 -3 -10 10
-6 11 -10 3 -10 -7 0 -13 -5 -13 -11 0 -5 6 -7 13 -3 6 4 5 -1 -4 -11 -13 -13
-21 -15 -35 -6 -14 8 -15 11 -4 11 12 0 13 2 1 9 -8 6 -12 19 -9 35 3 15 2 29
-2 31 -4 3 -4 20 0 39 4 19 5 37 2 40 -3 4 2 6 11 6 11 0 15 7 12 21 -4 18 -2
19 11 8 8 -7 14 -8 13 -3 -1 5 -1 16 0 24 1 12 3 13 10 1 6 -10 11 -5 17 20 4
19 7 37 6 41 -1 4 5 5 14 1 9 -3 14 0 12 8 -2 8 3 13 10 12 6 -2 12 2 12 7 0
6 2 10 5 10 3 0 5 -9 5 -21z m300 -139 c0 -5 -5 -10 -11 -10 -5 0 -7 5 -4 10
3 6 8 10 11 10 2 0 4 -4 4 -10z m-4020 -39 c0 -5 -7 -12 -16 -15 -14 -5 -15
-4 -4 9 14 17 20 19 20 6z m3920 -161 c0 -5 -2 -10 -4 -10 -3 0 -8 5 -11 10
-3 6 -1 10 4 10 6 0 11 -4 11 -10z m-1662 -430 c-1 -22 -6 -40 -10 -40 -4 0
-8 -13 -8 -29 0 -24 -4 -29 -24 -27 -18 1 -23 6 -20 21 3 19 2 19 -10 3 -12
-17 -14 -16 -24 5 -6 12 -11 17 -11 10 -1 -7 -8 -10 -18 -6 -10 4 -14 2 -10
-4 3 -5 0 -10 -8 -10 -8 0 -15 5 -16 11 0 6 -4 2 -8 -9 -7 -17 -8 -17 -13 7
-3 15 -2 25 2 23 4 -2 24 11 45 30 32 30 58 41 88 36 4 0 7 4 7 9 0 6 9 10 20
10 18 0 20 -6 18 -40z m113 -143 c-10 -9 -11 -8 -5 6 3 10 9 15 12 12 3 -3 0
-11 -7 -18z m324 -7 c3 -5 1 -10 -4 -10 -6 0 -11 5 -11 10 0 6 2 10 4 10 3 0
8 -4 11 -10z m-2 -175 c-3 -9 -8 -14 -10 -11 -3 3 -2 9 2 15 9 16 15 13 8 -4z
m307 -65 c0 -5 -2 -10 -4 -10 -3 0 -8 5 -11 10 -3 6 -1 10 4 10 6 0 11 -4 11
-10z m-50 -40 c0 -5 -5 -10 -11 -10 -5 0 -7 5 -4 10 3 6 8 10 11 10 2 0 4 -4
4 -10z m-316 -618 c-6 -4 -10 -16 -8 -27 3 -20 3 -20 -12 -1 -20 27 -18 36 9
36 13 0 17 -3 11 -8z"/>
<path d="M4215 2009 c-4 -6 -4 -13 -1 -16 3 -4 6 -1 6 6 0 7 5 9 12 5 7 -4 8
-3 4 4 -9 15 -13 15 -21 1z"/>
<path d="M2076 2722 c-3 -5 1 -9 9 -9 8 0 12 4 9 9 -3 4 -7 8 -9 8 -2 0 -6 -4
-9 -8z"/>
<path d="M5502 2194 c10 -10 20 -16 22 -13 3 3 -5 11 -17 18 -21 13 -21 12 -5
-5z"/>
<path d="M5060 2140 c-9 -6 -10 -10 -3 -10 6 0 15 5 18 10 8 12 4 12 -15 0z"/>
<path d="M4737 1873 c-13 -12 -7 -43 8 -43 8 0 15 5 15 10 0 6 -5 10 -11 10
-6 0 -9 7 -5 15 6 16 3 19 -7 8z"/>
<path d="M4750 1740 c0 -5 5 -10 11 -10 5 0 7 5 4 10 -3 6 -8 10 -11 10 -2 0
-4 -4 -4 -10z"/>
<path d="M4676 767 c3 -10 9 -15 12 -12 3 3 0 11 -7 18 -10 9 -11 8 -5 -6z"/>
</g>
</svg>
